<?xml version="1.0" encoding="utf-8"?>
<svg xmlns="http://www.w3.org/2000/svg" viewBox="47.6074 158.7444 283.4107 56.25" width="377.881px" height="75px">
  <defs>
    <clipPath id="8fcfede5a1">
      <path d="M 110.882812 194.800781 L 172.964844 194.800781 L 172.964844 200.402344 L 110.882812 200.402344 Z M 110.882812 194.800781 "/>
    </clipPath>
  </defs>
  <g id="fd168d47e3" transform="matrix(1, 0, 0, 1, 0, 7.105427357601002e-15)">
    <g style="fill:#ffffff;fill-opacity:1;">
      <g transform="translate(40.732373, 214.24442)">
        <path style="stroke:none" d="M 14.09375 0 L 6.875 0 L 6.875 -54.75 L 14.09375 -54.75 Z M 14.09375 0 "/>
      </g>
      <g transform="translate(61.674948, 214.24442)">
        <path style="stroke:none" d="M 22.484375 -24.40625 C 16.296875 -26.1875 11.789062 -28.375 8.96875 -30.96875 C 6.144531 -33.5625 4.734375 -36.757812 4.734375 -40.5625 C 4.734375 -44.875 6.457031 -48.441406 9.90625 -51.265625 C 13.351562 -54.085938 17.832031 -55.5 23.34375 -55.5 C 27.101562 -55.5 30.457031 -54.769531 33.40625 -53.3125 C 36.351562 -51.863281 38.632812 -49.859375 40.25 -47.296875 C 41.863281 -44.742188 42.671875 -41.945312 42.671875 -38.90625 L 35.421875 -38.90625 C 35.421875 -42.21875 34.363281 -44.816406 32.25 -46.703125 C 30.144531 -48.597656 27.175781 -49.546875 23.34375 -49.546875 C 19.789062 -49.546875 17.015625 -48.765625 15.015625 -47.203125 C 13.023438 -45.640625 12.03125 -43.46875 12.03125 -40.6875 C 12.03125 -38.445312 12.972656 -36.554688 14.859375 -35.015625 C 16.753906 -33.472656 19.976562 -32.0625 24.53125 -30.78125 C 29.082031 -29.507812 32.640625 -28.101562 35.203125 -26.5625 C 37.773438 -25.019531 39.679688 -23.21875 40.921875 -21.15625 C 42.160156 -19.101562 42.78125 -16.6875 42.78125 -13.90625 C 42.78125 -9.46875 41.050781 -5.914062 37.59375 -3.25 C 34.132812 -0.582031 29.507812 0.75 23.71875 0.75 C 19.957031 0.75 16.445312 0.03125 13.1875 -1.40625 C 9.9375 -2.851562 7.425781 -4.828125 5.65625 -7.328125 C 3.894531 -9.835938 3.015625 -12.679688 3.015625 -15.859375 L 10.265625 -15.859375 C 10.265625 -12.554688 11.484375 -9.945312 13.921875 -8.03125 C 16.367188 -6.113281 19.632812 -5.15625 23.71875 -5.15625 C 27.53125 -5.15625 30.453125 -5.929688 32.484375 -7.484375 C 34.515625 -9.035156 35.53125 -11.148438 35.53125 -13.828125 C 35.53125 -16.515625 34.585938 -18.59375 32.703125 -20.0625 C 30.828125 -21.53125 27.421875 -22.976562 22.484375 -24.40625 Z M 22.484375 -24.40625 "/>
      </g>
    </g>
    <g style="fill:#ffffff;fill-opacity:1;">
      <g transform="translate(174.751325, 214.652756)">
        <path style="stroke:none" d="M 26.4375 -22.140625 L 13.578125 -22.140625 L 13.578125 0 L 6.3125 0 L 6.3125 -54.75 L 24.4375 -54.75 C 30.601562 -54.75 35.347656 -53.34375 38.671875 -50.53125 C 41.992188 -47.726562 43.65625 -43.644531 43.65625 -38.28125 C 43.65625 -34.863281 42.734375 -31.890625 40.890625 -29.359375 C 39.046875 -26.828125 36.484375 -24.9375 33.203125 -23.6875 L 46.0625 -0.453125 L 46.0625 0 L 38.3125 0 Z M 13.578125 -28.046875 L 24.671875 -28.046875 C 28.253906 -28.046875 31.101562 -28.972656 33.21875 -30.828125 C 35.332031 -32.679688 36.390625 -35.164062 36.390625 -38.28125 C 36.390625 -41.65625 35.378906 -44.242188 33.359375 -46.046875 C 31.347656 -47.859375 28.4375 -48.773438 24.625 -48.796875 L 13.578125 -48.796875 Z M 13.578125 -28.046875 "/>
      </g>
    </g>
    <g style="fill:#ffffff;fill-opacity:1;">
      <g transform="translate(116.792645, 214.247965)">
        <path style="stroke:none" d="M 36.59375 -14.296875 L 13.65625 -14.296875 L 8.5 0 L 1.046875 0 L 21.96875 -54.765625 L 28.28125 -54.765625 L 49.234375 0 L 41.828125 0 Z M 15.828125 -20.234375 L 34.453125 -20.234375 L 25.125 -45.84375 Z M 15.828125 -20.234375 "/>
      </g>
    </g>
    <g clip-rule="nonzero" clip-path="url(#8fcfede5a1)">
      <path style=" stroke:none;fill-rule:nonzero;fill:#ffffff;fill-opacity:1;" d="M 110.882812 194.800781 L 172.96875 194.800781 L 172.96875 200.402344 L 110.882812 200.402344 Z M 110.882812 194.800781 "/>
    </g>
    <g style="fill:#01b7f9;fill-opacity:1;">
      <g transform="translate(243.242591, 214.011427)">
        <path style="stroke:none" d="M 35.109375 -13.390625 L 12.015625 -13.390625 L 8.078125 0 L 1.15625 0 L 17.484375 -53.90625 L 29.640625 -53.90625 L 45.96875 0 L 39.03125 0 Z M 23.09375 -51.125 L 13.78125 -19.40625 L 33.34375 -19.40625 L 24.03125 -51.125 Z M 23.09375 -51.125 "/>
      </g>
    </g>
    <g style="fill:#01b7f9;fill-opacity:1;">
      <g transform="translate(290.361804, 214.011427)">
        <path style="stroke:none" d="M 6.46875 -53.90625 L 40.65625 -53.90625 L 40.65625 -47.890625 L 26.796875 -47.890625 L 26.796875 -6 L 40.65625 -6 L 40.65625 0 L 6.46875 0 L 6.46875 -6 L 20.328125 -6 L 20.328125 -47.890625 L 6.46875 -47.890625 Z M 6.46875 -53.90625 "/>
      </g>
    </g>
  </g>
</svg>